<svg width="972" height="951" viewBox="0 0 972 951" fill="none" xmlns="http://www.w3.org/2000/svg">
<path d="M789.027 194.984L716.271 184.562C694.386 195.241 726.842 155.096 635.174 180.175C543.506 205.255 431.147 225.762 404.541 213.842C377.935 201.921 291.682 232.885 263.507 238.791C235.333 244.696 147.337 252.704 144.085 233.958C140.833 215.212 65.3719 224.25 65.3719 224.25" stroke="#5BC4DD"/>
<path d="M789.027 194.984L716.271 184.562C694.386 195.241 726.842 155.096 635.174 180.175C543.506 205.255 431.147 225.762 404.541 213.842C377.935 201.921 291.682 232.885 263.507 238.791C235.333 244.696 147.337 252.704 144.085 233.958C140.833 215.212 65.3719 224.25 65.3719 224.25" stroke="#5BC4DD"/>
<path d="M789.384 197.963L716.628 187.541C694.743 198.22 727.199 158.075 635.531 183.154C543.863 208.233 431.504 228.741 404.898 216.82C378.291 204.9 292.038 235.864 263.864 241.769C235.689 247.675 147.694 255.683 144.442 236.937C141.189 218.191 65.7287 227.229 65.7287 227.229" stroke="#5BC4DD"/>
<path d="M789.027 194.984L716.271 184.562C694.386 195.241 726.842 155.096 635.174 180.175C543.506 205.255 431.147 225.762 404.541 213.842C377.935 201.921 291.682 232.885 263.507 238.791C235.333 244.696 147.337 252.704 144.085 233.958C140.833 215.212 65.3719 224.25 65.3719 224.25" stroke="#5BC4DD"/>
<path d="M789.622 199.949L716.866 189.527C694.98 200.205 727.437 160.061 635.769 185.14C544.101 210.219 431.742 230.727 405.136 218.806C378.529 206.886 292.276 237.85 264.102 243.755C235.927 249.661 147.932 257.669 144.68 238.923C141.427 220.176 65.9666 229.214 65.9666 229.214" stroke="#5BC4DD"/>
<path d="M689.071 574.427L631.926 528.204C607.66 526.164 656.1 508.314 564.526 482.892C472.953 457.469 365.952 417.521 349.209 393.653C332.466 369.785 242.528 352.191 215.307 342.829C188.085 333.467 108.411 295.266 115.221 277.5C122.031 259.734 52.5948 228.838 52.5948 228.838" stroke="#5BC4DD"/>
<path d="M689.071 574.427L631.926 528.204C607.66 526.164 656.1 508.314 564.526 482.892C472.953 457.469 365.952 417.521 349.209 393.653C332.466 369.785 242.528 352.191 215.307 342.829C188.085 333.467 108.411 295.266 115.221 277.5C122.031 259.734 52.5948 228.838 52.5948 228.838" stroke="#5BC4DD"/>
<path d="M687.851 577.168L630.707 530.945C606.441 528.904 654.88 511.055 563.307 485.632C471.733 460.21 364.733 420.262 347.99 396.394C331.247 372.526 241.309 354.932 214.087 345.57C186.865 336.208 107.191 298.006 114.002 280.241C120.812 262.475 51.3752 231.579 51.3752 231.579" stroke="#5BC4DD"/>
<path d="M689.071 574.427L631.926 528.204C607.66 526.164 656.1 508.314 564.526 482.892C472.953 457.469 365.952 417.521 349.209 393.653C332.466 369.785 242.528 352.191 215.307 342.829C188.085 333.467 108.411 295.266 115.221 277.5C122.031 259.734 52.5948 228.838 52.5948 228.838" stroke="#5BC4DD"/>
<path d="M687.038 578.995L629.894 532.773C605.628 530.732 654.067 512.882 562.494 487.46C470.92 462.037 363.92 422.089 347.177 398.221C330.434 374.353 240.496 356.759 213.274 347.397C186.052 338.035 106.378 299.834 113.188 282.068C119.999 264.302 50.5622 233.406 50.5622 233.406" stroke="#5BC4DD"/>
<path d="M674.687 687.661L621.373 637.068C597.344 633.116 647.042 619.149 557.763 586.572C468.485 553.994 364.975 505.717 350.17 480.601C335.365 455.485 247.098 430.84 220.701 419.356C194.304 407.873 117.897 363.496 126.09 346.324C134.282 329.152 67.5038 292.867 67.5038 292.867" stroke="#5BC4DD"/>
<path d="M674.687 687.661L621.373 637.068C597.344 633.116 647.042 619.149 557.763 586.572C468.485 553.994 364.975 505.717 350.17 480.601C335.365 455.485 247.098 430.84 220.701 419.356C194.304 407.873 117.897 363.496 126.09 346.324C134.282 329.152 67.5038 292.867 67.5038 292.867" stroke="#5BC4DD"/>
<path d="M673.254 690.297L619.94 639.704C595.911 635.752 645.61 621.785 556.331 589.208C467.052 556.63 363.542 508.353 348.737 483.237C333.932 458.121 245.666 433.476 219.269 421.992C192.872 410.509 116.465 366.132 124.657 348.96C132.85 331.788 66.0715 295.503 66.0715 295.503" stroke="#5BC4DD"/>
<path d="M674.687 687.661L621.373 637.068C597.344 633.116 647.042 619.149 557.763 586.572C468.485 553.994 364.975 505.717 350.17 480.601C335.365 455.485 247.098 430.84 220.701 419.356C194.304 407.873 117.897 363.496 126.09 346.324C134.282 329.152 67.5038 292.867 67.5038 292.867" stroke="#5BC4DD"/>
<path d="M672.299 692.054L618.985 641.461C594.957 637.51 644.655 623.543 555.376 590.965C466.098 558.387 362.588 510.11 347.783 484.994C332.977 459.878 244.711 435.233 218.314 423.75C191.917 412.266 115.51 367.89 123.703 350.717C131.895 333.545 65.1167 297.26 65.1167 297.26" stroke="#5BC4DD"/>
<path d="M601.675 824.993L558.967 765.176C536.13 756.722 587.579 752.472 506.134 703.494C424.69 654.516 332.263 587.417 322.51 559.942C312.757 532.467 230.796 491.47 207.068 475.171C183.339 458.873 116.778 400.762 128.09 385.464C139.401 370.165 80.7515 321.831 80.7515 321.831" stroke="#5BC4DD"/>
<path d="M601.675 824.993L558.967 765.176C536.13 756.722 587.579 752.472 506.134 703.494C424.69 654.516 332.263 587.417 322.51 559.942C312.757 532.467 230.796 491.47 207.068 475.171C183.339 458.873 116.778 400.762 128.09 385.464C139.401 370.165 80.7515 321.831 80.7515 321.831" stroke="#5BC4DD"/>
<path d="M599.767 827.308L557.059 767.491C534.222 759.037 585.671 754.787 504.226 705.809C422.782 656.832 330.355 589.732 320.602 562.257C310.849 534.782 228.888 493.785 205.16 477.486C181.431 461.188 114.87 403.077 126.182 387.779C137.493 372.48 78.8436 324.146 78.8436 324.146" stroke="#5BC4DD"/>
<path d="M601.675 824.993L558.967 765.176C536.13 756.722 587.579 752.472 506.134 703.494C424.69 654.516 332.263 587.417 322.51 559.942C312.757 532.467 230.796 491.47 207.068 475.171C183.339 458.873 116.778 400.762 128.09 385.464C139.401 370.165 80.7515 321.831 80.7515 321.831" stroke="#5BC4DD"/>
<path d="M598.495 828.851L555.787 769.035C532.95 760.581 584.399 756.33 502.954 707.353C421.51 658.375 329.083 591.276 319.33 563.801C309.577 536.326 227.616 495.328 203.888 479.03C180.16 462.731 113.598 404.621 124.91 389.322C136.222 374.024 77.5716 325.69 77.5716 325.69" stroke="#5BC4DD"/>
</svg>
